<svg width="135" height="39" viewBox="0 0 135 39" fill="none" xmlns="http://www.w3.org/2000/svg">
<path d="M23.0147 38.3999C21.7129 38.3999 20.969 37.749 20.783 36.4471L20.3369 34.8975C19.0815 36.7108 18.1096 37.0516 16.5288 37.842C14.948 38.5859 13.1579 38.9578 11.1587 38.9578C9.20589 38.9578 7.50885 38.5626 6.06752 37.7722C4.67269 36.9818 3.53358 35.9357 2.65018 34.6338C0.883394 31.9372 0 28.7058 0 24.9398C0 21.0807 0.906642 17.8958 2.71992 15.3852C6.06752 10.75 12.169 11.3248 12.169 11.3248C15.1447 11.3248 16.8542 12.0376 19.0395 13.8508C19.7369 14.4553 20.3181 15.1759 20.783 16.0128V1.99476C20.783 1.34383 20.9922 0.855643 21.4107 0.530184C21.8756 0.204723 22.3871 0.0419922 22.945 0.0419922C23.5029 0.0419922 23.9911 0.22797 24.4096 0.599926C24.8745 0.925385 25.107 1.39033 25.107 1.99476V36.3774C25.107 37.0748 24.8745 37.5862 24.4096 37.9117C23.9911 38.2372 23.5262 38.3999 23.0147 38.3999ZM18.5933 17.5361C18.5933 17.5361 14.4405 15.7661 12.169 19.4777C12.169 19.4777 8.76218 16.0709 6.0526 17.4596C3.34303 18.8484 3.22892 23.4845 4.09632 26.2914C6.0526 31.2228 12.169 33.7619 12.169 34.8975C12.169 34.8975 18.492 29.9369 20.2671 25.5521C22.3899 20.3086 18.5933 17.5361 18.5933 17.5361Z" fill="url(#paint0_linear_198_1166)"/>
<path d="M32.5529 25.149C32.5529 23.4752 32.8086 21.7781 33.3201 20.0578C33.878 18.3375 34.7149 16.8265 35.8307 15.5246C38.2485 12.5955 41.5961 11.1309 45.8735 11.1309C50.058 11.1309 53.4056 12.5955 55.9163 15.5246C58.1016 18.0818 59.1942 21.2667 59.1942 25.0792C59.1942 28.8453 58.1016 32.0301 55.9163 34.6338C53.4521 37.5165 50.1045 38.9578 45.8735 38.9578C41.5496 38.9578 38.202 37.5165 35.8307 34.6338C33.6455 31.9836 32.5529 28.822 32.5529 25.149ZM37.1558 25.149C37.1558 26.2648 37.3186 27.4504 37.644 28.7058C37.9695 29.9611 38.4809 31.1003 39.1783 32.1231C40.8056 34.4943 43.0374 35.68 45.8735 35.68C48.7562 35.68 50.9879 34.4943 52.5687 32.1231C53.8706 30.1239 54.5215 27.7759 54.5215 25.0792C54.5215 22.429 53.8706 20.0811 52.5687 18.0353C51.0344 15.6641 48.8027 14.4785 45.8735 14.4785C42.9909 14.4785 40.7592 15.6641 39.1783 18.0353C37.83 20.0346 37.1558 22.4058 37.1558 25.149Z" fill="url(#paint1_linear_198_1166)"/>
<path d="M64.4843 13.7113C64.4843 13.0604 64.6935 12.5722 65.1119 12.2468C65.5769 11.9213 66.2046 11.7586 66.995 11.7586C68.4828 11.7586 69.0872 13.2232 68.8082 16.1523C69.8776 13.9206 71.9233 12.363 74.9454 11.4796C75.8753 11.2471 76.8981 11.1309 78.014 11.1309C79.1299 11.1309 80.2457 11.3401 81.3616 11.7586C82.524 12.1305 83.5469 12.735 84.4302 13.5719C86.3365 15.3851 87.2896 18.0586 87.2896 21.5921V36.3774C87.2896 37.0748 87.0572 37.5862 86.5922 37.9117C86.1273 38.2372 85.6158 38.3999 85.0579 38.3999C84.5465 38.3999 84.0583 38.2372 83.5933 37.9117C83.1749 37.5397 82.9657 37.0283 82.9657 36.3774V21.2434C82.9657 17.9888 81.6871 15.8733 79.1299 14.897C78.386 14.618 77.5258 14.4785 76.5495 14.4785C75.6196 14.4785 74.6665 14.6645 73.6901 15.0364C72.7137 15.4084 71.8768 15.8966 71.1794 16.501C69.5986 17.8958 68.8082 20.0346 68.8082 22.9172V36.3774C68.8082 37.0748 68.5758 37.5862 68.1108 37.9117C67.6459 38.2372 67.1344 38.3999 66.5765 38.3999C66.0186 38.3999 65.5304 38.2372 65.1119 37.9117C64.6935 37.5397 64.4843 37.0283 64.4843 36.3774V13.7113Z" fill="url(#paint2_linear_198_1166)"/>
<path d="M106.994 22.1501L110.063 22.2198V19.9183C110.063 16.2918 108.017 14.4785 103.926 14.4785C102.019 14.4785 100.648 14.6412 99.8109 14.9667C98.8345 15.3387 97.9047 15.7803 97.0213 16.2918C96.1379 16.7567 95.4869 16.9892 95.0685 16.9892C94.6965 16.9892 94.3478 16.8497 94.0224 16.5708C93.7434 16.2453 93.6039 15.8733 93.6039 15.4549C93.6039 15.0364 93.7899 14.6645 94.1619 14.339C96.3936 12.2003 99.6947 11.1309 104.065 11.1309C108.947 11.1309 112.085 12.8047 113.48 16.1523C113.992 17.3147 114.247 18.6862 114.247 20.2671L114.178 36.5169C114.178 37.1678 113.968 37.656 113.55 37.9814C113.132 38.2604 112.643 38.3999 112.085 38.3999C111.574 38.3999 111.109 38.2604 110.691 37.9814C110.272 37.656 110.063 37.191 110.063 36.5866V34.0759C108.947 36.4471 106.925 37.9814 103.995 38.6789C103.066 38.8648 102.043 38.9578 100.927 38.9578C99.8574 38.9578 98.7648 38.7718 97.6489 38.3999C96.5331 38.0744 95.5567 37.563 94.7198 36.8656C92.953 35.4707 92.0696 33.518 92.0696 31.0073C92.0696 25.1025 97.0445 22.1501 106.994 22.1501ZM110.063 25.3582C109.273 25.4047 108.366 25.4279 107.343 25.4279C106.367 25.4279 105.367 25.4512 104.344 25.4977C103.368 25.5442 102.391 25.6604 101.415 25.8464C100.485 26.0324 99.6482 26.3113 98.9043 26.6833C97.2305 27.6132 96.3936 29.008 96.3936 30.8678C96.3936 32.3556 96.9748 33.5645 98.1371 34.4944C99.067 35.1918 100.415 35.587 102.182 35.68C104.321 35.68 106.134 35.0058 107.622 33.6574C109.156 32.3091 109.97 30.3331 110.063 27.7294V25.3582Z" fill="url(#paint3_linear_198_1166)"/>
<path d="M123.493 11.7586C124.841 11.7586 125.515 12.4327 125.515 13.7811V16.1523C126.677 12.8047 129.118 11.1309 132.838 11.1309C133.535 11.1309 134.07 11.3401 134.442 11.7586C134.814 12.1305 135 12.549 135 13.0139C135 13.4789 134.814 13.8973 134.442 14.2693C134.117 14.6412 133.466 14.8272 132.489 14.8272C131.513 14.8272 130.56 15.0364 129.63 15.4549C128.746 15.8268 128.003 16.3615 127.398 17.0589C126.143 18.5933 125.515 20.639 125.515 23.1962V36.3774C125.515 37.0283 125.283 37.5397 124.818 37.9117C124.353 38.2372 123.911 38.3999 123.493 38.3999C123.074 38.3999 122.725 38.3766 122.447 38.3302C122.214 38.2372 122.005 38.1209 121.819 37.9814C121.4 37.6095 121.191 37.0748 121.191 36.3774V13.7811C121.191 13.1302 121.4 12.642 121.819 12.3165C122.284 11.9446 122.842 11.7586 123.493 11.7586Z" fill="url(#paint4_linear_198_1166)"/>
<defs>
<linearGradient id="paint0_linear_198_1166" x1="46.7308" y1="16.0862" x2="122.91" y2="93.5222" gradientUnits="userSpaceOnUse">
<stop stop-color="#7AF1DC"/>
<stop offset="1" stop-color="#3E94E3"/>
</linearGradient>
<linearGradient id="paint1_linear_198_1166" x1="46.7308" y1="16.0862" x2="122.91" y2="93.5222" gradientUnits="userSpaceOnUse">
<stop stop-color="#7AF1DC"/>
<stop offset="1" stop-color="#3E94E3"/>
</linearGradient>
<linearGradient id="paint2_linear_198_1166" x1="46.7308" y1="16.0862" x2="122.91" y2="93.5222" gradientUnits="userSpaceOnUse">
<stop stop-color="#7AF1DC"/>
<stop offset="1" stop-color="#3E94E3"/>
</linearGradient>
<linearGradient id="paint3_linear_198_1166" x1="46.7308" y1="16.0862" x2="122.91" y2="93.5222" gradientUnits="userSpaceOnUse">
<stop stop-color="#7AF1DC"/>
<stop offset="1" stop-color="#3E94E3"/>
</linearGradient>
<linearGradient id="paint4_linear_198_1166" x1="46.7308" y1="16.0862" x2="122.91" y2="93.5222" gradientUnits="userSpaceOnUse">
<stop stop-color="#7AF1DC"/>
<stop offset="1" stop-color="#3E94E3"/>
</linearGradient>
</defs>
</svg>
