<svg width="15" height="15" viewBox="0 0 15 15" fill="none" xmlns="http://www.w3.org/2000/svg">
<path d="M5.14243 3.13362C6.06599 1.26259 8.73404 1.26259 9.6576 3.13362V3.13362C10.024 3.87594 10.733 4.39085 11.5521 4.51057V4.51057C13.616 4.81223 14.4423 7.35006 12.9481 8.80537V8.80537C12.3546 9.38339 12.0837 10.2166 12.2237 11.0331V11.0331C12.5762 13.0885 10.4175 14.6553 8.57175 13.6846V13.6846C7.8384 13.2989 6.96162 13.2989 6.22828 13.6846V13.6846C4.38249 14.6553 2.22378 13.0885 2.57631 11.0331V11.0331C2.71635 10.2166 2.44538 9.38339 1.85193 8.80537V8.80537C0.357773 7.35006 1.18406 4.81223 3.24791 4.51057V4.51057C4.06703 4.39085 4.77601 3.87594 5.14243 3.13362V3.13362Z" stroke="#192F2C" stroke-width="2" stroke-linecap="round" stroke-linejoin="round"/>
</svg>
