<svg width="24" height="23" viewBox="0 0 24 23" fill="none" xmlns="http://www.w3.org/2000/svg">
<path d="M12.3335 22.9815C18.6746 22.9815 23.815 17.8411 23.815 11.5C23.815 5.15899 18.6746 0.0185547 12.3335 0.0185547C5.99249 0.0185547 0.852051 5.15899 0.852051 11.5C0.852051 17.8411 5.99249 22.9815 12.3335 22.9815Z" fill="#F0FAF8"/>
<path d="M11.812 4.61108V19.537" stroke="#192F2C" stroke-width="1.3569" stroke-linecap="round" stroke-linejoin="round"/>
<path d="M15.2037 7.32495H10.1153C9.48552 7.32495 8.88154 7.57513 8.43622 8.02045C7.9909 8.46577 7.74072 9.06975 7.74072 9.69953C7.74072 10.3293 7.9909 10.9333 8.43622 11.3786C8.88154 11.8239 9.48552 12.0741 10.1153 12.0741H13.5076C14.1373 12.0741 14.7413 12.3243 15.1866 12.7696C15.632 13.2149 15.8821 13.8189 15.8821 14.4487C15.8821 15.0785 15.632 15.6824 15.1866 16.1278C14.7413 16.5731 14.1373 16.8233 13.5076 16.8233H7.74072" stroke="#192F2C" stroke-width="1.3569" stroke-linecap="round" stroke-linejoin="round"/>
</svg>
