<svg width="51" height="41" viewBox="0 0 51 41" fill="none" xmlns="http://www.w3.org/2000/svg">
<path d="M50.5 4.994C48.6597 5.81128 46.6828 6.36126 44.6079 6.60932C46.7271 5.34014 48.352 3.3306 49.1174 0.934542C47.1367 2.1095 44.9406 2.96331 42.6022 3.42483C40.7311 1.43068 38.0659 0.18457 35.116 0.18457C29.4508 0.18457 24.8587 4.77863 24.8587 10.4419C24.8587 11.2457 24.951 12.0303 25.1241 12.7783C16.5994 12.3514 9.04198 8.26695 3.98064 2.0595C3.0999 3.57482 2.59415 5.3363 2.59415 7.21892C2.59415 10.7765 4.4037 13.9167 7.15551 15.7551C5.47481 15.7013 3.89218 15.2398 2.50954 14.4725C2.50954 14.5167 2.50954 14.5571 2.50954 14.6013C2.50954 19.5723 6.04402 23.7183 10.7381 24.6586C9.87849 24.8932 8.97083 25.0182 8.03433 25.0182C7.37473 25.0182 6.73053 24.9528 6.10555 24.8355C7.41127 28.9104 11.1996 31.8776 15.6879 31.9603C12.1784 34.7121 7.75549 36.3524 2.94798 36.3524C2.12109 36.3524 1.30382 36.3043 0.5 36.2082C5.04021 39.1177 10.4304 40.8157 16.2244 40.8157C35.0929 40.8157 45.4079 25.1855 45.4079 11.6303C45.4079 11.1861 45.3983 10.7438 45.379 10.3034C47.3847 8.85539 49.1251 7.04969 50.5 4.994Z" fill="url(#paint0_linear_211_255)"/>
<defs>
<linearGradient id="paint0_linear_211_255" x1="17.8077" y1="16.936" x2="68.5746" y2="35.2418" gradientUnits="userSpaceOnUse">
<stop stop-color="#7AF1DC"/>
<stop offset="1" stop-color="#3E94E3"/>
</linearGradient>
</defs>
</svg>
