<svg width="51" height="37" viewBox="0 0 51 37" fill="none" xmlns="http://www.w3.org/2000/svg">
<path d="M20.7589 2.85078C20.3696 1.76864 19.9768 0.677564 19.9696 0.663278C19.7821 0.243635 19.3482 -0.0206509 18.8911 0.0257777C18.6018 0.048992 11.7571 0.638278 7.37143 4.16506C5.07857 6.28292 0.5 18.6651 0.5 29.3704C0.5 29.5597 0.548214 29.7436 0.642857 29.9079C3.80536 35.4615 12.4268 36.9151 14.3911 36.9776C14.4036 36.9794 14.4143 36.9793 14.425 36.9793C14.7714 36.9793 15.0964 36.8133 15.3036 36.5329L17.4286 33.6544C13.9179 33.1204 13.2839 32.424 13.1357 32.3151C12.3429 31.7311 11.7571 30.9133 12.4679 29.8811C13.0143 29.0793 14.1607 28.8151 15.0393 29.2668C15.9393 29.6865 18.3482 31.0365 25.5 31.0008C32.6018 30.9793 35.7196 29.4918 35.7643 29.4597C36.9571 28.9222 37.8875 29.1436 38.4679 29.9401C39.1589 31.024 38.6661 31.7579 37.8768 32.3401C37.7286 32.449 37.3696 32.7543 33.5982 33.6472L35.6964 36.5311C35.9018 36.8133 36.2286 36.9776 36.575 36.9776C36.5875 36.9776 36.5982 36.9776 36.6089 36.9758C38.575 36.9133 47.1964 35.4597 50.3571 29.9061C50.4518 29.7418 50.5 29.5579 50.5 29.3686C50.5 18.6651 45.9214 6.28292 43.5714 4.11864C39.2429 0.640064 32.3982 0.0507777 32.1089 0.0257777C31.6518 -0.013508 31.2179 0.245421 31.0304 0.663278C31.0232 0.677564 30.6411 1.78649 30.2714 2.85613C30.2714 2.85613 27.3589 2.42935 25.5 2.42935C23.6411 2.42935 20.7589 2.85078 20.7589 2.85078ZM18.3571 25.6436C16.3839 25.6436 14.7857 23.2633 14.7857 20.324C14.7857 17.3847 16.3839 15.0043 18.3571 15.0043C20.3375 14.7097 21.8857 17.3847 21.9286 20.324C21.9286 23.2633 20.3304 25.6436 18.3571 25.6436ZM32.6429 25.6436C30.6696 25.6436 29.0714 23.2472 29.0714 20.2918C29.0714 17.3365 30.6696 14.9401 32.6429 14.9401C34.6161 14.9401 36.2143 17.3365 36.2143 20.2918C36.2143 23.2472 34.6161 25.6436 32.6429 25.6436Z" fill="url(#paint0_linear_211_254)"/>
<defs>
<linearGradient id="paint0_linear_211_254" x1="17.8077" y1="15.2579" x2="67.3846" y2="34.9109" gradientUnits="userSpaceOnUse">
<stop stop-color="#7AF1DC"/>
<stop offset="1" stop-color="#3E94E3"/>
</linearGradient>
</defs>
</svg>
